
<svg width="158" height="42" viewBox="0 0 158 42" fill="none" xmlns="http://www.w3.org/2000/svg">
<path d="M48.81 19.19L49 17.75H48.68C48.0469 18.2107 47.3449 18.5685 46.6 18.81C45.7053 19.1005 44.7707 19.249 43.83 19.25C42.6211 19.2777 41.4256 18.9917 40.36 18.42C39.3779 17.8879 38.5614 17.0956 38 16.13C37.4194 15.0494 37.1299 13.8363 37.16 12.61C37.1396 11.3911 37.4286 10.1869 38 9.11003C38.544 8.13113 39.3511 7.32403 40.33 6.78003C41.3844 6.23143 42.562 5.96283 43.75 6.00003C44.6093 5.99133 45.4651 6.10923 46.29 6.35003C47.0166 6.54683 47.6966 6.88673 48.29 7.35003H48.59L48.78 6.00003H48.68C48.1997 5.82253 47.7044 5.68863 47.2 5.60003C46.62 5.49003 46.02 5.40003 45.42 5.33003C44.8689 5.26653 44.3147 5.23313 43.76 5.23003C42.607 5.20893 41.4594 5.39173 40.37 5.77003C39.3776 6.11913 38.4562 6.64423 37.65 7.32003C36.8809 7.96933 36.2573 8.77343 35.82 9.68003C35.3905 10.6041 35.168 11.6109 35.168 12.63C35.168 13.6491 35.3905 14.6558 35.82 15.58C36.26 16.482 36.8833 17.2824 37.65 17.93C38.451 18.6133 39.3738 19.1392 40.37 19.48C41.4561 19.8597 42.5995 20.0492 43.75 20.04C44.2946 20.0402 44.8388 20.0102 45.38 19.95C45.99 19.89 46.6 19.8 47.2 19.68C47.7209 19.5697 48.2324 19.4193 48.73 19.23L48.81 19.19Z" fill="#23283D"/>
<path d="M54.4601 5.45996H52.6801V19.73H54.4601V5.45996Z" fill="#23283D"/>
<path d="M62.65 6.12996V19.73H64.43V6.12996C64.68 6.12996 65.09 6.17996 65.67 6.24996L70.17 6.53996V5.45996H56.91V6.53996L61.41 6.24996C62 6.18996 62.39 6.13996 62.65 6.12996Z" fill="#23283D"/>
<path d="M82.99 5.45996L79.04 12.77L74.13 5.51996L74.09 5.45996H72.08L77.71 13.72V19.73H79.58V13.44L85.01 5.45996H82.99Z" fill="#23283D"/>
<path d="M43.45 27.18C42.1669 26.4121 40.683 26.0463 39.19 26.13H36.28V40.41H38.06V34.19H39.19C40.6779 34.2888 42.1614 33.9405 43.45 33.19C43.9347 32.8541 44.3309 32.4057 44.6044 31.8832C44.878 31.3608 45.0209 30.7798 45.0209 30.19C45.0209 29.6003 44.878 29.0193 44.6044 28.4968C44.3309 27.9743 43.9347 27.526 43.45 27.19V27.18ZM43.13 30.18C43.13 32.4 41.84 33.46 39.19 33.46H38.06V26.88H39.19C41.84 26.88 43.13 28 43.13 30.17V30.18Z" fill="#23283D"/>
<path d="M59 39.5699C58.6263 39.3169 58.3234 38.9727 58.12 38.5699C57.7813 37.9307 57.5034 37.2611 57.29 36.5699C57.0072 35.6486 56.5182 34.8038 55.86 34.0999C55.2823 33.4986 54.5423 33.0782 53.73 32.8899C54.5114 32.7395 55.2333 32.3682 55.81 31.8199C56.1328 31.4897 56.3792 31.0928 56.5321 30.657C56.6849 30.2213 56.7404 29.7574 56.6947 29.2979C56.6489 28.8384 56.503 28.3945 56.2672 27.9975C56.0315 27.6005 55.7115 27.26 55.33 26.9999C54.2031 26.3383 52.9042 26.0284 51.6 26.1099H48.49V40.3699H50.27V26.8799H51.6C53.77 26.8799 54.82 27.7899 54.82 29.6599C54.82 31.5299 53.7 32.4899 51.38 32.4899H51.11V33.1199H51.38C52.2883 33.0925 53.1771 33.3864 53.89 33.9499C54.7116 34.7176 55.2919 35.7079 55.56 36.7999C55.7604 37.5418 56.0491 38.2569 56.42 38.9299C56.6784 39.4087 57.0712 39.8015 57.55 40.0599C58.0727 40.3013 58.6445 40.4177 59.22 40.3999H60.22V39.9999H60.11C59.7159 39.9289 59.3391 39.7829 59 39.5699Z" fill="#23283D"/>
<path d="M75.3 27.9999C74.5296 27.3214 73.6417 26.7893 72.68 26.4299C70.5868 25.6903 68.3033 25.6903 66.21 26.4299C65.244 26.7801 64.3544 27.3132 63.59 27.9999C62.839 28.6615 62.2375 29.4754 61.8255 30.3876C61.4134 31.2997 61.2003 32.2891 61.2003 33.2899C61.2003 34.2908 61.4134 35.2802 61.8255 36.1923C62.2375 37.1044 62.839 37.9183 63.59 38.5799C64.3544 39.2667 65.244 39.7997 66.21 40.1499C68.3033 40.8896 70.5868 40.8896 72.68 40.1499C73.6417 39.7905 74.5296 39.2584 75.3 38.5799C76.0268 37.9102 76.6059 37.0962 77 36.1899C77.4102 35.2676 77.6222 34.2694 77.6222 33.2599C77.6222 32.2505 77.4102 31.2523 77 30.3299C76.5987 29.4451 76.0201 28.6521 75.3 27.9999ZM75.71 33.2899C75.7394 34.5039 75.468 35.7063 74.92 36.7899C74.4262 37.7563 73.6663 38.5612 72.73 39.1099C71.7212 39.6561 70.5922 39.9421 69.445 39.9421C68.2979 39.9421 67.1688 39.6561 66.16 39.1099C65.2231 38.5588 64.4606 37.7547 63.96 36.7899C63.421 35.6995 63.1502 34.4961 63.17 33.2799C63.1486 32.0633 63.4304 30.8604 63.99 29.7799C64.4864 28.8127 65.2454 28.0052 66.18 27.4499C67.1871 26.8985 68.3168 26.6094 69.465 26.6094C70.6132 26.6094 71.7429 26.8985 72.75 27.4499C73.6874 28.0062 74.447 28.8178 74.94 29.7899C75.4773 30.8767 75.7415 32.078 75.71 33.2899Z" fill="#23283D"/>
<path d="M88.34 27.18C87.0612 26.4105 85.58 26.0446 84.09 26.13H81.1801V40.41H83.0001V34.19H84.1301C85.615 34.2904 87.0958 33.942 88.3801 33.19C89.1711 32.6338 89.7091 31.7865 89.8761 30.8341C90.0431 29.8817 89.8251 28.9019 89.2701 28.11C89.0251 27.7685 88.7243 27.471 88.3801 27.23L88.34 27.18ZM84.09 33.45H83.0001V26.88H84.1301C86.7601 26.88 88.0001 28 88.0001 30.17C88.0001 32.34 86.7201 33.45 84.0701 33.45H84.09Z" fill="#23283D"/>
<path d="M95.18 39.73V33.3C95.42 33.3 95.83 33.3 96.43 33.36H100.21V32.36L96.42 32.57C95.83 32.57 95.42 32.63 95.18 32.63V26.8C95.44 26.8 95.85 26.8 96.42 26.92L100.42 27.17V26.17H93.42V40.45H100.53V39.45L96.44 39.7C95.88 39.68 95.45 39.72 95.18 39.73Z" fill="#23283D"/>
<path d="M115 39.57C114.635 39.3132 114.339 38.9695 114.14 38.57C113.804 37.9306 113.53 37.2609 113.32 36.57C113.037 35.6487 112.548 34.8039 111.89 34.1C111.316 33.499 110.579 33.0784 109.77 32.89C110.549 32.7416 111.268 32.3698 111.84 31.82C112.12 31.538 112.34 31.202 112.486 30.8324C112.632 30.4628 112.702 30.0673 112.69 29.67C112.705 29.1564 112.588 28.6476 112.35 28.1924C112.111 27.7371 111.76 27.3506 111.33 27.07C110.203 26.4084 108.904 26.0985 107.6 26.18H104.49V40.44H106.27V26.88H107.6C109.77 26.88 110.82 27.79 110.82 29.66C110.82 31.53 109.7 32.49 107.38 32.49H107.1V33.12H107.37C108.278 33.0926 109.167 33.3865 109.88 33.95C110.702 34.7177 111.282 35.708 111.55 36.8C111.75 37.5419 112.039 38.257 112.41 38.93C112.666 39.4109 113.059 39.8045 113.54 40.06C114.063 40.3014 114.634 40.4178 115.21 40.4H116.26V40H116.15C115.742 39.9332 115.352 39.7871 115 39.57Z" fill="#23283D"/>
<path d="M115.54 27.21L120.05 26.92C120.617 26.8467 121.027 26.8067 121.28 26.8V40.41H123.06V26.8C123.3 26.8 123.71 26.8 124.29 26.92L128.79 27.21V26.13H115.54V27.21Z" fill="#23283D"/>
<path d="M133.48 26.13H131.7V40.4H133.48V26.13Z" fill="#23283D"/>
<path d="M139.88 39.73V33.3C140.12 33.3 140.53 33.3 141.12 33.36L144.9 33.57V32.57H141.12C140.53 32.57 140.12 32.63 139.88 32.63V26.8C140.14 26.8 140.55 26.8 141.12 26.92L145.12 27.17V26.17H138.1V40.45H145.21V39.45L141.13 39.7C140.57 39.68 140.16 39.72 139.88 39.73Z" fill="#23283D"/>
<path d="M156.49 34.64C156.052 34.0698 155.513 33.5851 154.9 33.21C154.27 32.82 153.61 32.45 152.9 32.11C152.19 31.77 151.79 31.51 151.29 31.22C150.835 30.9582 150.43 30.6199 150.09 30.22C149.789 29.8391 149.63 29.3654 149.64 28.88C149.631 28.5602 149.701 28.2431 149.844 27.957C149.987 27.6709 150.199 27.4245 150.46 27.24C151.113 26.7983 151.892 26.5807 152.68 26.62C153.259 26.5987 153.836 26.6939 154.377 26.9001C154.918 27.1062 155.412 27.4191 155.83 27.82H156.14L156.27 26.48H156.18C155.663 26.2683 155.123 26.1206 154.57 26.04C152.33 25.66 150.57 25.91 149.33 26.82C148.928 27.1135 148.603 27.4994 148.382 27.9449C148.161 28.3905 148.051 28.8827 148.06 29.38C148.043 30.0377 148.247 30.6821 148.64 31.21C149.041 31.7387 149.536 32.1894 150.1 32.54C150.68 32.91 151.29 33.26 151.93 33.6C152.685 33.9776 153.405 34.4227 154.08 34.93C154.518 35.2499 154.892 35.6503 155.18 36.11C155.398 36.483 155.512 36.9078 155.51 37.34C155.525 37.7062 155.451 38.0707 155.297 38.4029C155.142 38.7351 154.91 39.0256 154.62 39.25C153.938 39.7581 153.1 40.0127 152.25 39.97C151.531 39.9624 150.818 39.8374 150.14 39.6C149.454 39.3719 148.809 39.0342 148.23 38.6H148L147.84 40.03H147.95C148.702 40.248 149.467 40.4217 150.24 40.55C150.94 40.6716 151.649 40.7384 152.36 40.75C153.222 40.7626 154.076 40.5957 154.87 40.26C155.549 39.9628 156.133 39.4856 156.56 38.88C156.952 38.2865 157.16 37.591 157.16 36.88C157.205 36.078 156.968 35.2855 156.49 34.64Z" fill="#23283D"/>
<path d="M21.57 12.46C18.14 9.99998 13 10.84 12.92 10.85L12 11V23.24C9.69936 22.7939 7.61156 21.5981 6.06276 19.8394C4.51396 18.0808 3.59166 15.8585 3.43996 13.52C3.31926 10.8466 4.13626 8.21489 5.74996 6.07999C7.60996 3.68999 9.79996 2.49999 13.34 1.94999H13.45L13.38 0.859985H13.28C9.93916 1.05079 6.78856 2.47639 4.43996 4.85999C2.13416 7.16489 0.836056 10.2898 0.829956 13.55C0.999956 20 6.64996 24.07 12 24.37V41.14L14.17 40.14V24.58H15C20.46 24.52 24.28 21.75 24.28 17.88C24.3269 16.8206 24.1026 15.7668 23.6284 14.8183C23.1541 13.8698 22.4456 13.0581 21.57 12.46ZM14.21 11.79C15.326 11.6872 16.4511 11.822 17.5112 12.1857C18.5713 12.5494 19.5422 13.1337 20.36 13.9C20.844 14.44 21.2118 15.0737 21.4406 15.7618C21.6694 16.4499 21.7543 17.1777 21.69 17.9C21.69 21.16 18.14 23.48 14.96 23.52H14.22L14.21 11.79Z" fill="#FC8438"/>
<path d="M15.62 38.76L17.79 37.79V31.76L15.62 32.72V38.76Z" fill="#FC8438"/>
</svg>

